<svg width="67" height="67" viewBox="0 0 67 67" fill="none" xmlns="http://www.w3.org/2000/svg">
<path fill-rule="evenodd" clip-rule="evenodd" d="M0 33.5C0 14.9913 14.9861 0 33.4884 0C51.9907 0 66.9767 14.9913 66.9765 33.5C66.9765 51.992 51.9905 66.9998 33.4884 66.9998C14.9861 66.9998 0 51.992 0 33.5ZM13.3953 53.6L40.8223 40.8365L53.5814 13.3999L26.1544 26.1635L13.3953 53.6ZM37.1721 33.5C37.1721 35.5267 35.531 37.185 33.4884 37.185C31.4623 37.185 29.8044 35.5267 29.8044 33.5C29.8044 31.473 31.4621 29.8148 33.4884 29.8148C35.5312 29.8148 37.1721 31.473 37.1721 33.5Z" fill="#121214"/>
</svg>
