<svg width="1200" height="300" viewBox="0 0 1200 300" fill="none" xmlns="http://www.w3.org/2000/svg">
<g clip-path="url(#clip0)">
<path d="M0 16C0 7.16345 7.16344 0 16 0H1050C1132.84 0 1200 67.1573 1200 150V284C1200 292.837 1192.84 300 1184 300H150C67.1573 300 0 232.843 0 150V16Z" fill="#121214"/>
<path d="M218.476 152.78C218.476 148.658 219.441 145.37 221.371 142.916C223.316 140.446 225.892 139.211 229.097 139.211C232.122 139.211 234.501 140.266 236.234 142.376L236.504 139.702H241.876V165.44C241.876 168.924 240.788 171.672 238.613 173.684C236.455 175.696 233.536 176.702 229.857 176.702C227.911 176.702 226.006 176.294 224.142 175.475C222.295 174.674 220.888 173.619 219.923 172.31L222.744 168.728C224.576 170.904 226.832 171.991 229.514 171.991C231.492 171.991 233.054 171.452 234.199 170.372C235.343 169.309 235.916 167.738 235.916 165.661V163.87C234.199 165.784 231.909 166.741 229.048 166.741C225.941 166.741 223.398 165.506 221.42 163.036C219.457 160.566 218.476 157.147 218.476 152.78ZM224.412 153.295C224.412 155.961 224.952 158.063 226.031 159.601C227.127 161.122 228.639 161.883 230.568 161.883C232.972 161.883 234.755 160.852 235.916 158.791V147.112C234.787 145.1 233.021 144.094 230.617 144.094C228.655 144.094 227.127 144.871 226.031 146.425C224.952 147.979 224.412 150.269 224.412 153.295ZM254.36 166.25H248.4V139.702H254.36V166.25ZM248.032 132.807C248.032 131.891 248.318 131.131 248.891 130.525C249.479 129.92 250.313 129.618 251.392 129.618C252.472 129.618 253.306 129.92 253.894 130.525C254.483 131.131 254.777 131.891 254.777 132.807C254.777 133.707 254.483 134.459 253.894 135.065C253.306 135.653 252.472 135.948 251.392 135.948C250.313 135.948 249.479 135.653 248.891 135.065C248.318 134.459 248.032 133.707 248.032 132.807ZM268.341 133.249V139.702H273.026V144.118H268.341V158.938C268.341 159.952 268.537 160.689 268.93 161.146C269.338 161.588 270.058 161.809 271.088 161.809C271.775 161.809 272.47 161.727 273.173 161.564V166.176C271.816 166.553 270.508 166.741 269.249 166.741C264.67 166.741 262.381 164.213 262.381 159.159V144.118H258.015V139.702H262.381V133.249H268.341ZM283.474 142.597C285.42 140.34 287.881 139.211 290.857 139.211C296.515 139.211 299.385 142.442 299.466 148.903V166.25H293.506V149.124C293.506 147.292 293.106 145.999 292.305 145.247C291.52 144.478 290.359 144.094 288.822 144.094C286.434 144.094 284.652 145.157 283.474 147.284V166.25H277.514V128.562H283.474V142.597ZM321.591 163.649C319.841 165.71 317.355 166.741 314.134 166.741C311.256 166.741 309.073 165.898 307.585 164.213C306.113 162.529 305.378 160.091 305.378 156.902V139.702H311.338V156.828C311.338 160.198 312.736 161.883 315.532 161.883C318.426 161.883 320.38 160.844 321.394 158.767V139.702H327.353V166.25H321.738L321.591 163.649ZM356.714 153.246C356.714 157.368 355.789 160.648 353.943 163.085C352.112 165.522 349.586 166.741 346.362 166.741C343.256 166.741 340.837 165.62 339.104 163.379L338.809 166.25H333.413V128.562H339.374V142.254C341.09 140.225 343.403 139.211 346.314 139.211C349.552 139.211 352.095 140.414 353.943 142.818C355.789 145.222 356.714 148.584 356.714 152.902V153.246ZM350.753 152.731C350.753 149.852 350.247 147.692 349.234 146.253C348.219 144.814 346.747 144.094 344.818 144.094C342.235 144.094 340.42 145.222 339.374 147.48V158.423C340.435 160.729 342.266 161.883 344.868 161.883C346.731 161.883 348.171 161.187 349.184 159.797C350.199 158.407 350.722 156.305 350.753 153.491V152.731Z" fill="#F0F0FF"/>
<path d="M381.242 170.936H358.749V166.25H381.242V170.936ZM396.08 166.741C392.304 166.741 389.238 165.555 386.883 163.183C384.545 160.795 383.375 157.621 383.375 153.663V152.927C383.375 150.277 383.882 147.913 384.897 145.836C385.927 143.742 387.365 142.115 389.213 140.953C391.061 139.792 393.12 139.211 395.393 139.211C399.008 139.211 401.796 140.364 403.757 142.671C405.737 144.977 406.725 148.24 406.725 152.461V154.865H389.384C389.564 157.057 390.293 158.791 391.567 160.067C392.859 161.343 394.479 161.981 396.423 161.981C399.155 161.981 401.379 160.877 403.096 158.668L406.309 161.735C405.245 163.322 403.824 164.557 402.041 165.44C400.274 166.307 398.288 166.741 396.08 166.741ZM395.37 143.996C393.734 143.996 392.409 144.568 391.396 145.713C390.399 146.858 389.761 148.453 389.483 150.498H400.839V150.056C400.708 148.061 400.176 146.556 399.245 145.542C398.313 144.511 397.022 143.996 395.37 143.996ZM420.903 148.437L425.956 139.702H432.578L424.459 152.78L432.848 166.25H426.274L420.976 157.172L415.702 166.25H409.08L417.469 152.78L409.375 139.702H415.949L420.903 148.437ZM459.877 153.246C459.877 157.352 458.946 160.631 457.081 163.085C455.216 165.522 452.715 166.741 449.576 166.741C446.664 166.741 444.335 165.784 442.585 163.87V176.457H436.626V139.702H442.118L442.365 142.401C444.115 140.275 446.492 139.211 449.502 139.211C452.74 139.211 455.275 140.422 457.106 142.843C458.952 145.247 459.877 148.592 459.877 152.878V153.246ZM453.942 152.731C453.942 150.081 453.41 147.979 452.347 146.425C451.3 144.871 449.795 144.094 447.834 144.094C445.398 144.094 443.648 145.1 442.585 147.112V158.889C443.665 160.95 445.431 161.981 447.882 161.981C449.781 161.981 451.26 161.22 452.324 159.699C453.402 158.161 453.942 155.838 453.942 152.731ZM471.282 166.25H465.321V128.562H471.282V166.25ZM476.678 152.731C476.678 150.13 477.193 147.791 478.223 145.713C479.255 143.619 480.701 142.017 482.566 140.904C484.429 139.776 486.572 139.211 488.991 139.211C492.572 139.211 495.476 140.364 497.698 142.671C499.94 144.977 501.15 148.036 501.33 151.847L501.353 153.246C501.353 155.863 500.846 158.202 499.833 160.263C498.835 162.324 497.397 163.919 495.515 165.048C493.653 166.176 491.492 166.741 489.039 166.741C485.295 166.741 482.296 165.498 480.039 163.011C477.798 160.509 476.678 157.18 476.678 153.025V152.731ZM482.639 153.246C482.639 155.978 483.202 158.12 484.33 159.674C485.46 161.212 487.03 161.981 489.039 161.981C491.051 161.981 492.614 161.195 493.726 159.625C494.854 158.055 495.417 155.757 495.417 152.731C495.417 150.048 494.837 147.922 493.676 146.351C492.531 144.781 490.969 143.996 488.991 143.996C487.045 143.996 485.5 144.773 484.355 146.327C483.21 147.864 482.639 150.171 482.639 153.246ZM520.288 145.149C519.503 145.018 518.693 144.953 517.86 144.953C515.129 144.953 513.289 145.999 512.341 148.093V166.25H506.382V139.702H512.071L512.22 142.671C513.658 140.364 515.652 139.211 518.204 139.211C519.053 139.211 519.757 139.326 520.313 139.555L520.288 145.149ZM535.251 166.741C531.473 166.741 528.407 165.555 526.052 163.183C523.715 160.795 522.545 157.621 522.545 153.663V152.927C522.545 150.277 523.051 147.913 524.066 145.836C525.096 143.742 526.536 142.115 528.382 140.953C530.23 139.792 532.292 139.211 534.563 139.211C538.177 139.211 540.965 140.364 542.929 142.671C544.906 144.977 545.896 148.24 545.896 152.461V154.865H528.554C528.734 157.057 529.462 158.791 530.737 160.067C532.03 161.343 533.648 161.981 535.595 161.981C538.324 161.981 540.549 160.877 542.265 158.668L545.478 161.735C544.417 163.322 542.993 164.557 541.21 165.44C539.444 166.307 537.457 166.741 535.251 166.741ZM534.54 143.996C532.905 143.996 531.58 144.568 530.565 145.713C529.569 146.858 528.93 148.453 528.652 150.498H540.009V150.056C539.879 148.061 539.347 146.556 538.414 145.542C537.483 144.511 536.191 143.996 534.54 143.996ZM564.439 145.149C563.654 145.018 562.844 144.953 562.011 144.953C559.279 144.953 557.439 145.999 556.491 148.093V166.25H550.53V139.702H556.221L556.368 142.671C557.808 140.364 559.802 139.211 562.354 139.211C563.204 139.211 563.907 139.326 564.464 139.555L564.439 145.149Z" fill="#757577"/>
<path fill-rule="evenodd" clip-rule="evenodd" d="M116 149.5C116 130.991 130.986 116 149.488 116C167.991 116 182.977 130.991 182.977 149.5C182.977 167.992 167.99 183 149.488 183C130.986 183 116 167.992 116 149.5ZM129.395 169.6L156.822 156.836L169.581 129.4L142.154 142.164L129.395 169.6ZM153.172 149.5C153.172 151.527 151.531 153.185 149.488 153.185C147.462 153.185 145.804 151.527 145.804 149.5C145.804 147.473 147.462 145.815 149.488 145.815C151.531 145.815 153.172 147.473 153.172 149.5Z" fill="#F0F0FF"/>
<path fill-rule="evenodd" clip-rule="evenodd" d="M833 192.001C833 80.948 922.948 -9 1034 -9C1145.05 -9 1235 80.948 1235 192.001C1235 302.953 1145.05 393 1034 393C922.948 393 833 302.953 833 192.001ZM913.4 312.601L1078.02 236.02L1154.6 71.3999L989.981 147.981L913.4 312.601ZM1056.11 192.001C1056.11 204.161 1046.26 214.111 1034 214.111C1021.84 214.111 1011.89 204.161 1011.89 192.001C1011.89 179.839 1021.84 169.889 1034 169.889C1046.26 169.889 1056.11 179.839 1056.11 192.001Z" fill="#F0F0FF" fill-opacity="0.06"/>
</g>
<defs>
<clipPath id="clip0">
<path d="M0 16C0 7.16345 7.16344 0 16 0H1050C1132.84 0 1200 67.1573 1200 150V284C1200 292.837 1192.84 300 1184 300H150C67.1573 300 0 232.843 0 150V16Z" fill="white"/>
</clipPath>
</defs>
</svg>
